Coordinates
version=1
nRows=11
nColumns=40
inDegrees=yes

Units are S.I. units (second, meters, Newtons, ...)
If the header above contains a line with 'inDegrees', this indicates whether rotational values are in degrees (yes) or radians (no).

endheader
time	pelvis_tilt	pelvis_list	pelvis_rotation	pelvis_tx	pelvis_ty	pelvis_tz	hip_flexion_r	hip_adduction_r	hip_rotation_r	knee_angle_r	knee_angle_r_beta	ankle_angle_r	subtalar_angle_r	mtp_angle_r	hip_flexion_l	hip_adduction_l	hip_rotation_l	knee_angle_l	knee_angle_l_beta	ankle_angle_l	subtalar_angle_l	mtp_angle_l	lumbar_extension	lumbar_bending	lumbar_rotation	arm_flex_r	arm_add_r	arm_rot_r	elbow_flex_r	pro_sup_r	wrist_flex_r	wrist_dev_r	arm_flex_l	arm_add_l	arm_rot_l	elbow_flex_l	pro_sup_l	wrist_flex_l	wrist_dev_l
      4.62500000	     -6.07643077	     -3.32313410	     -1.91262727	     -0.39633247	      0.92618776	     -1.04446081	     53.14257155	      0.26989690	     -6.80016279	      4.66876471	      0.08148532	      2.26408811	      0.00000000	      0.00000000	     41.80183520	     -1.64377899	     -0.76702452	     61.73671902	      1.07750902	     13.44310388	      0.00000000	      0.00000000	    -10.64640368	     -4.83185399	      0.18496778	     89.95795406	    -21.09934951	     12.33172654	     45.37371742	     60.86709900	      0.00000000	      0.00000000	     89.93932781	    -42.83038366	      5.08076027	     47.97943321	     82.13034254	      0.00000000	      0.00000000
      4.63000000	     -6.05158881	     -3.35206883	     -1.94617681	     -0.39589235	      0.92715437	     -1.04435462	     53.01952701	      0.32088804	     -6.74738539	      4.70677747	      0.08214876	      2.38748071	      0.00000000	      0.00000000	     41.64221748	     -1.67586072	     -0.74334975	     61.54174002	      1.07410599	     13.38538685	      0.00000000	      0.00000000	    -10.61665855	     -4.78600222	      0.20139718	     89.95743261	    -21.21962438	     12.60829365	     45.22288491	     60.94044074	      0.00000000	      0.00000000	     89.93851630	    -43.06994206	      5.22943589	     48.04035792	     82.15925772	      0.00000000	      0.00000000
      4.63500000	     -5.91587757	     -3.36151470	     -1.95259795	     -0.39526062	      0.92836503	     -1.04432251	     52.77059441	      0.31172493	     -6.79971595	      4.73185278	      0.08258641	      2.29853304	      0.00000000	      0.00000000	     41.32213938	     -1.68953455	     -0.77546526	     61.32358210	      1.07029842	     13.37517041	      0.00000000	      0.00000000	    -10.69458567	     -4.76069363	      0.15761857	     89.95710653	    -21.46124938	     13.30501348	     45.07392626	     61.20837132	      0.00000000	      0.00000000	     89.93782514	    -43.51417301	      5.75330879	     48.16415506	     82.28662033	      0.00000000	      0.00000000
      4.64000000	     -5.84547564	     -3.33653877	     -1.96355192	     -0.39471409	      0.92948883	     -1.04420833	     52.60433279	      0.30375112	     -6.74781817	      4.79577015	      0.08370198	      2.37800165	      0.00000000	      0.00000000	     41.07735019	     -1.66876909	     -0.78221556	     61.05611492	      1.06563023	     13.27718910	      0.00000000	      0.00000000	    -10.71704947	     -4.78569654	      0.11830408	     89.95664605	    -21.60083791	     13.66927272	     44.87950261	     61.48180338	      0.00000000	      0.00000000	     89.93707748	    -43.81679612	      5.95134224	     48.25578202	     82.39442282	      0.00000000	      0.00000000
      4.64500000	     -5.74788231	     -3.38211116	     -1.99094823	     -0.39412863	      0.93065341	     -1.04408978	     52.42425821	      0.35026596	     -6.76403636	      4.88616071	      0.08527959	      2.24262794	      0.00000000	      0.00000000	     40.79672117	     -1.71424054	     -0.73743936	     60.81046548	      1.06134284	     13.22423496	      0.00000000	      0.00000000	    -10.73915369	     -4.72429438	      0.13607878	     89.95598857	    -21.76133633	     14.01057233	     44.62461296	     61.59707489	      0.00000000	      0.00000000	     89.93602609	    -44.07844566	      6.10658261	     48.30087436	     82.45252136	      0.00000000	      0.00000000
      4.65000000	     -5.65436118	     -3.40618817	     -1.98086104	     -0.39357622	      0.93176191	     -1.04410845	     52.22564458	      0.34919060	     -6.83910145	      4.92817276	      0.08601284	      2.22729748	      0.00000000	      0.00000000	     40.53755907	     -1.71584334	     -0.70597701	     60.56962729	      1.05713942	     13.14735329	      0.00000000	      0.00000000	    -10.76347128	     -4.68668160	      0.11588549	     89.95553191	    -21.90272799	     14.33873247	     44.34681336	     61.73903109	      0.00000000	      0.00000000	     89.93524352	    -44.33865751	      6.35635936	     48.36732325	     82.53473541	      0.00000000	      0.00000000
      4.65500000	     -5.58717717	     -3.33136199	     -1.98372821	     -0.39296674	      0.93289027	     -1.04402077	     52.05545996	      0.30966043	     -6.73457625	      4.96149267	      0.08659438	      2.36468813	      0.00000000	      0.00000000	     40.29630811	     -1.66103536	     -0.76879425	     60.33033846	      1.05296304	     13.09708254	      0.00000000	      0.00000000	    -10.77143151	     -4.76590037	      0.02785334	     89.95504436	    -22.12256256	     14.87645643	     44.18840413	     62.11325820	      0.00000000	      0.00000000	     89.93414565	    -44.80118337	      6.78530165	     48.51011062	     82.73184802	      0.00000000	      0.00000000
      4.66000000	     -5.43389841	     -3.34613985	     -2.03814422	     -0.39233601	      0.93418611	     -1.04402274	     51.76994820	      0.35040702	     -6.65320680	      4.97047175	      0.08675110	      2.29491716	      0.00000000	      0.00000000	     39.95122136	     -1.69994428	     -0.81534010	     60.07978883	      1.04859013	     13.03676180	      0.00000000	      0.00000000	    -10.87569149	     -4.75439694	      0.14639467	     89.95437171	    -22.46586550	     14.50578418	     43.67017384	     70.79324393	      0.00000000	      0.00000000	     89.93352050	    -44.99130274	      6.93809333	     48.56193512	     83.62528532	      0.00000000	      0.00000000
      4.66500000	     -5.40308992	     -3.41472324	     -2.04951243	     -0.39176670	      0.93520503	     -1.04386988	     51.63335001	      0.41909010	     -6.65851386	      5.01115549	      0.08746116	      2.31092713	      0.00000000	      0.00000000	     39.75831942	     -1.78170958	     -0.79317623	     59.82149278	      1.04408201	     12.92189640	      0.00000000	      0.00000000	    -10.83069355	     -4.68252683	      0.17635189	     89.95361066	    -22.62635084	     14.68957582	     43.40207348	     70.81999912	      0.00000000	      0.00000000	     89.93236819	    -45.17738303	      7.03538958	     48.64205986	     83.63087110	      0.00000000	      0.00000000
      4.67000000	     -5.39452664	     -3.41461259	     -2.06050970	     -0.39121031	      0.93619799	     -1.04377177	     51.52461047	      0.43183273	     -6.65752870	      5.04033059	      0.08797036	      2.32479067	      0.00000000	      0.00000000	     39.63870274	     -1.80095475	     -0.80407428	     59.71990576	      1.04230898	     12.89685361	      0.00000000	      0.00000000	    -10.79981993	     -4.67773135	      0.19275440	     89.95281348	    -22.85235120	     14.75477373	     43.25188020	     70.82925991	      0.00000000	      0.00000000	     89.93114494	    -45.39590468	      7.05491974	     48.64094369	     83.63449104	      0.00000000	      0.00000000
      4.67500000	     -5.15313313	     -3.37084919	     -2.08069032	     -0.39053739	      0.93769982	     -1.04369478	     51.15809125	      0.42263152	     -6.70242296	      5.04818337	      0.08810742	      2.27388028	      0.00000000	      0.00000000	     39.13710398	     -1.79749030	     -0.94230588	     59.33992470	      1.03567706	     12.75817134	      0.00000000	      0.00000000	    -10.97346305	     -4.72755988	      0.19736433	     89.95258902	    -23.11915812	     15.51436791	     42.89549881	     70.96015402	      0.00000000	      0.00000000	     89.93056658	    -45.77165374	      7.63397187	     48.75754211	     83.71544824	      0.00000000	      0.00000000
